<?xml version="1.0" encoding="utf-8"?>
<!-- Generator: Adobe Illustrator 28.0.0, SVG Export Plug-In . SVG Version: 6.00 Build 0)  -->
<svg version="1.1" id="Capa_1" xmlns="http://www.w3.org/2000/svg" xmlns:xlink="http://www.w3.org/1999/xlink" x="0px" y="0px"
	 viewBox="0 0 564.5 205.7" style="enable-background:new 0 0 564.5 205.7;" xml:space="preserve">
<style type="text/css">
	.st0{fill:#0E53B4;}
	.st1{fill:#FFFFFF;}
</style>
<path class="st0" d="M205.8,67.6c0.9-13.7,1.8-27.5,2.8-41.2c0.2-3.3,0.9-6.6,1.7-9.8c0.2-0.9,1.4-1.6,2.2-2.4
	c0.5,0.9,1.4,1.9,1.4,2.8c0,7.8-0.2,15.6-0.3,23.4c0,1.7,0,3.5,0.6,5.2c0.7-7.5,1.3-15.1,2.1-22.6c0.3-3,0.6-6,1.2-9
	c0.1-0.7,1.1-1.3,1.6-2c0.6,0.7,1.3,1.4,1.7,2.3c0.3,0.7,0.1,1.5,0.1,2.3c-0.1,28.7-0.2,57.4-0.3,86.1c0,1.1,0,2.1,0.3,3.2
	c0.8-19.1,1.5-38.2,2.5-57.3c0.6-10.3,1.9-20.6,2.8-30.9c0.2-2,1.1-3.3,3.1-2.9c9.4,2,19,3.5,28.1,6.4c21.6,6.8,40,18.7,53.8,37
	c6.5,8.7,11,18.4,13.3,29c0.4,1.7,1,2.6,2.9,2.9c3.6,0.6,5.5,3.4,6.4,6.6c1.3,4.1,2,8.3,3.1,12.5c0.6,2.2,1.4,4.3,2.1,6.5
	c0.4,0,0.7,0,1.1,0c0.7-2.4,1.3-4.8,2.1-7.1c1.1-3.4,2.2-6.9,3.6-10.2c0.6-1.4,1.7-2.7,2.8-3.7c2.8-2.6,5.8-2,7.2,1.6
	c1.3,3.2,2.2,6.7,3.5,9.9c0.8,2.1,2.1,4,3.4,6.6c1.3-2.2,2.1-3.5,2.9-4.8c1.3-2.1,2.4-4.3,3.9-6.1c3.3-3.9,7.3-3.5,10.1,0.7
	c0.4,0.6,0.7,1.2,1.1,1.8c3,5.2,2.9,4.7,8.9,3.2c6.7-1.6,13.6-2.3,20.4-3.2c0.6-0.1,1.3,0.7,1.9,1.1c-0.6,0.5-1.1,1.4-1.8,1.5
	c-3.3,0.6-6.6,0.8-9.8,1.5c-4.3,0.9-8.5,1.8-12.7,3.1c-4.4,1.3-5.8,1-8.1-3.1c-0.8-1.4-1.5-2.8-2.3-4.1c-1.7-2.7-3.1-2.8-5.3-0.5
	c-0.7,0.7-1.2,1.5-1.7,2.3c-0.9,1.6-1.6,3.4-2.8,4.8c-1.3,1.5-2.8,3.6-4.6,3.9c-2.6,0.5-4.1-2-5-4.2c-1.5-3.7-2.7-7.5-4.1-11.2
	c-0.4-1-1.2-1.9-1.8-2.9c-1,0.7-2.4,1.3-2.8,2.3c-1.5,3.4-2.7,6.8-3.9,10.3c-0.7,2-0.9,4.3-1.8,6.1c-0.8,1.5-2.4,3.4-3.7,3.4
	c-1.3,0-3.3-1.7-3.9-3.1c-1.4-3.4-2-7.1-3-10.7c-0.8-2.8-1.3-5.7-2.5-8.4c-0.7-1.5-2.4-2.6-3.7-3.9c-0.2,0.2-0.4,0.4-0.6,0.6
	c0,5.8,0.3,11.7-0.1,17.5c-1.2,16.3-7.6,30.6-17.3,43.4c-16.1,21.1-37.5,34.6-62.3,43.2c-4.5,1.5-9.1,2.8-14,4.3
	c-0.3-2.3-0.6-4.1-0.6-5.9c-0.3-19.5-0.5-39-0.7-58.5c0-4.7,0.4-5,4.8-5.5c10.3-1.2,15.6-5.9,17.7-16.1c1.8-9.1,2.1-18.1-3.2-26.3
	c-4-6.1-9.8-9.4-17.1-9.7c-2.8-0.1-3.4-1.2-3.5-3.7c-0.4-13.8-1-27.5-1.5-41.2c0-1.1-0.2-2.1-0.6-3.2c-0.4,4.9-0.9,9.8-1.1,14.7
	c-1.1,34.5-2.3,69.1-3,103.6c-0.3,14.1,0.6,28.3,1,42.4c0,1.8,0.1,3.5-0.1,5.3c-0.1,0.8-0.9,1.5-1.3,2.3c-0.7-0.6-2-1.2-2.1-1.9
	c-0.6-3.3-1.1-6.6-1.2-9.9c-0.8-32.7-1.6-65.4-2.3-98c-0.2-12.4,0-24.8,0.1-37.2c0-1,0-2.1-0.6-3.1c-0.4,6.2-1,12.4-1.3,18.6
	c-1.4,26.6-0.7,53.3,0.8,79.9c0.7,13.1,1.1,26.1,1.6,39.2c0,0.6,0.2,1.2,0,1.7c-0.4,0.9-0.9,1.7-1.4,2.5c-0.7-0.7-1.8-1.4-1.9-2.2
	c-0.6-3.6-1-7.3-1.4-11c-3.5-36.3-2.3-72.7-2.6-109.1c-0.1-6.2,0-12.5-0.7-18.7c-0.3,7.3-0.7,14.6-0.7,21.9
	c-0.2,29.5-0.2,58.9-0.3,88.4c0,10.1,0.1,20.3,0.1,30.4c0,0.5,0.2,1.1,0,1.4c-0.4,0.8-1,1.4-1.5,2.1c-0.5-0.6-1.3-1.2-1.4-1.9
	c-0.3-2.2-0.4-4.5-0.5-6.7c-0.8-21.8-1.5-43.7-2.4-65.6c-0.6,10.2-1.3,20.4-1.7,30.6c-0.4,12.3-0.5,24.6-0.8,36.9
	c0,0.6,0.1,1.2-0.1,1.7c-0.3,0.6-0.8,1.2-1.3,1.7c-0.6-0.5-1.6-1-1.7-1.6c-0.4-2.7-0.6-5.4-0.9-8.1c-2.3-28.1-3.3-56.3-3.1-84.5
	c0-1.5,0-3.1-0.3-4.7c-0.3,14.8-0.5,29.7-0.9,44.5c-0.4,15.7-1,31.4-1.7,47.1c-0.1,1.5-1,4.2-1.8,4.3c-2.7,0.2-2.6-2.5-2.8-4.2
	c-1.4-12.1-3.2-24.2-4-36.3c-1.9-30.1-3.4-60.2-4.9-88.9c-0.3,6.8-0.7,15-1,23.2c-0.7,25.5-1.2,50.9-1.9,76.4
	c-0.1,5.3-0.6,10.5-1.2,15.7c-0.2,1.4-1.4,2.6-2.2,3.9c-0.9-1.3-2.3-2.5-2.5-3.9c-1.5-10.8-3.6-21.6-3.9-32.5
	c-0.9-27.2-0.9-54.4-1.3-81.7c0-1.4,0-2.7-0.5-4.1c-1,10.5-2.3,21.1-3,31.6c-1.4,22.2-2.5,44.4-3.7,66.6c-0.1,1.3-0.1,2.6-0.5,3.8
	c-0.2,0.7-0.9,1.3-1.4,1.9c-0.7-0.6-1.8-1.1-1.9-1.7c-0.8-4.1-1.5-8.3-1.9-12.4c-2-21.5-4-42.9-6-64.4c-0.1-0.5-0.2-1.1-1-1.7
	c-1.2,5.4-2.7,10.8-3.5,16.2c-2,13.4-3.6,26.9-5.3,40.3c-0.2,1.2-0.2,2.4-0.7,3.4c-0.4,1-1.3,2.2-2.1,2.4c-0.8,0.1-2.1-1-2.5-1.9
	c-0.8-1.6-1.4-3.4-1.7-5.2c-2-12.3-3.9-24.6-5.9-37c-0.5-3-0.9-6.1-1.4-9.1c-0.3,0-0.6-0.1-0.9-0.1c-0.8,4.2-1.7,8.4-2.4,12.6
	c-1.1,6.8-1.9,13.7-3,20.5c-0.3,1.9-0.5,4.8-3,4.7c-1.3-0.1-3-2.3-3.6-3.9c-2.4-6.2-4.5-12.5-6.8-18.7c-0.7-2-1.8-3.9-3-5.6
	c-1.5-2.2-2.9-2.1-4.3,0.2c-1.5,2.6-2.6,5.4-3.9,8.2c-1.4,3-2.5,6.2-4,9.1c-1.6,3.1-4.3,3.1-6.1,0.1c-1.8-3.1-3.1-6.5-4.7-9.7
	c-2.1-4.1-3.6-4.3-6.5-0.7c-1.3,1.7-2.6,3.5-4,5.1c-2.9,3.3-5.7,3.3-8.6,0c-1.5-1.8-2.9-3.7-4.3-5.6c-1.5-2.2-3.3-2.3-5.5-1.2
	c-2.6,1.3-5.2,2.6-8,3.6c-4.2,1.6-8.5,1-12.6-0.6c-0.8-0.3-1.3-1.4-1.9-2.2c1-0.2,2.1-0.8,3-0.5c5,1.6,9.8,1.1,14.5-1.2
	c9.4-4.7,9.4-4.7,15.7,3.9c0.3,0.4,0.6,0.8,0.9,1.2c1.9,2.3,2.9,2.4,4.8,0.1c1.4-1.7,2.6-3.6,4.2-5.3c4.2-4.5,7.6-4.1,10.6,1.2
	c1.4,2.5,2.4,5.1,3.7,7.6c0.5,0.9,1,1.9,1.8,3.6c1.3-3.1,2.4-5.5,3.4-8c1.4-3.2,2.5-6.6,4.3-9.6c3.2-5.5,7.7-5.7,10.6-0.1
	c2.8,5.2,4.6,10.9,6.8,16.4c1,2.5,1.8,5.1,2.6,7.6c0.3,0,0.5,0,0.8,0c0.6-4.4,1.2-8.9,1.9-13.3c0.9-6,2-11.9,3-17.9
	c0.3-1.4,0.6-2.9,1.4-4.1c0.8-1.2,2.1-2,3.1-3c0.8,1.1,2.1,2.1,2.3,3.3c1.3,7.6,2.3,15.2,3.6,22.8c1.3,8,2.7,15.9,4.1,23.9
	c0.1,0.8,0.5,1.6,1.1,2.4c0.8-7.7,1.2-15.5,2.5-23.1c2.1-12.2,4.7-24.3,7.2-36.4c0.3-1.6,2-3,3-4.5c0.8,1.6,2.2,3.1,2.4,4.8
	c1.3,11.8,2.5,23.7,3.6,35.5c0.9,9.2,1.7,18.4,3,27.6c0.1-0.9,0.2-1.8,0.3-2.7c2-27.3,4-54.7,6.1-82c0.3-4.1,0.9-8.1,1.7-12.2
	c0.3-1.4,1.5-3.8,2.3-3.8c2.5-0.1,2.1,2.5,2.1,4c0.2,9.6,0.2,19.1,0.3,28.7c0.2,19.4,0,38.8,0.6,58.3c0.4,12.8,2,25.6,3.1,38.4
	c0.3,0,0.7,0,1,0c0.3-9.4,0.7-18.8,0.9-28.2c0.5-20.3,0.7-40.6,1.4-60.9c0.5-14.2,1.5-28.4,2.2-42.7c0-0.7,0-1.4,0.3-2
	c0.3-0.6,1-1.4,1.6-1.4c0.5,0,1.4,0.7,1.6,1.3c0.4,1.1,0.6,2.3,0.6,3.4c1,23.1,1.7,46.2,3,69.3c1.2,21.3,3.1,42.6,4.7,63.9
	c0.1,1,0.4,2,1,3c0.4-14.1,0.7-28.3,1.1-42.4c0.6-22.2,1.1-44.5,2-66.7c0.5-12.7,1.8-25.3,2.8-37.9c0.1-0.7,0-1.5,0.3-2
	c0.5-0.7,1.3-1.2,1.9-1.7c0.4,0.7,1.2,1.3,1.2,2c0.2,4.8,0.2,9.6,0.2,14.3c-0.4,28.1-0.9,56.2-1.2,84.3c-0.1,9.6,0.6,19.3,1.4,28.9
	c0.4-8.5,1.1-17.1,1.3-25.6c0.9-32.7,1.6-65.4,2.5-98c0-1.6,0-3.2,0.3-4.7c0.2-0.8,1-1.4,1.6-2.1c0.5,0.8,1.4,1.6,1.5,2.4
	c0.2,2.6,0.1,5.3,0.1,7.9c0,11.6,0,23.2,0,34.8C205.7,67.7,205.7,67.7,205.8,67.6z M305.2,144.7c18.3-30.2,10.3-68.2-13.1-92.1
	c0.6,1.4,1,2.3,1.3,3.2c3,7.8,6.1,15.6,9,23.4c0.7,2,0.8,4.2,0.9,6.3c0,0.9-0.9,2.4-1.4,2.4c-0.9,0.1-2.2-0.6-2.7-1.4
	c-1-1.5-1.7-3.3-2.5-4.9c-1.1-2.4-2.2-4.8-3.4-7.2c0,2.1,0.5,3.9,0.6,5.8c0,1-0.7,2-1.1,3c-0.9-0.6-2-0.9-2.6-1.7
	c-1-1.2-1.5-2.7-2.3-4c-1.6-2.7-3.3-5.4-5-8.1c1.9,6.6,4.1,12.9,6.1,19.3c0.6,1.9,0.8,4,1,6c0.1,0.7-0.6,1.5-0.9,2.3
	c-0.8-0.5-1.7-0.8-2.2-1.5c-0.9-1.3-1.3-2.8-2.2-4.1c-3-4.5-6.1-9-9.1-13.5c-0.3,0.2-0.5,0.3-0.8,0.5c0.6,2.4,1.4,4.8,1.9,7.3
	c0.4,2.2,0.6,4.5,0.5,6.7c0,0.9-1.1,1.8-1.8,2.6c-0.8-0.6-1.7-1.1-2.3-1.8c-0.6-0.8-0.9-1.9-1.4-2.9c-1.3-2.7-2.7-5.3-4.1-8
	c0,3.6,0.6,7,0.9,10.5c0.2,2.2,0.2,4.7-2.1,4.8c-1,8.1-1.9,15.8-2.8,23.5c2.9,0.1,3.5,0.8,3,4.4c-0.3,1.8-0.7,3.6-1.2,5.4
	c-1.5,4.6-3.1,9.2-4.7,13.7c3.3-3.4,6-7.1,8.9-10.7c2.6-3.3,5.4-6.5,8.2-9.5c0.6-0.6,1.8-0.6,2.8-0.9c0.3,0.9,0.9,2,0.7,2.8
	c-1,3.2-2.1,6.3-3.4,9.3c-1.1,2.6-2.5,5.1-3.8,7.7c1.5-0.8,2.6-2,3.7-3.1c3.4-3.5,6.7-7.1,10.2-10.5c0.9-0.8,2.6-0.8,3.9-1.1
	c0.1,1.3,0.6,2.6,0.3,3.8c-0.5,1.9-1.4,3.8-2,5.2c1.4-0.3,2.8-0.6,4.2-0.9c-0.1,1.5,0,3-0.4,4.4c-0.3,1.3-1.1,2.5-1.8,3.7
	c-1.3,2.4-2.7,4.8-4.1,7.2c2.5-2.1,4.5-4.6,6.6-6.9c1.4-1.6,2.9-1.8,3.9,0.7c1.7-2.5,3.3-4.9,5-7.2c0.5-0.7,1.7-0.9,2.6-1.3
	c0.2,1,0.8,2.1,0.7,3.1C306.6,141.9,305.8,143.2,305.2,144.7z"/>
<path class="st0" d="M512.1,107.2c1.2-9.8,2.4-19.5,3.4-29.1c0.7-6.3,0.6-6.4-5-9.3c-6.8-3.6-13.6-7.2-20.8-11.1
	c-0.4,2.7-0.8,5-1,7.3c-1.4,12-2.8,24-4.2,36c-0.9,7.8-9.7,13.8-17.2,12c-5.7-1.3-8.3-7.5-5.3-13.1c3.1-5.8,8.2-8,15-7.9
	c2.2-18.4,4.4-36.7,6.6-55.4c1,0.5,1.9,0.8,2.7,1.2c12.6,6.4,25.2,12.9,37.8,19.2c1.7,0.9,2.4,1.8,2.2,3.8
	c-1.8,14.3-3.4,28.6-5.1,43c-0.5,4.2-1,8.3-1.5,12.5c-0.9,7.7-9.4,13.8-16.8,12.1c-5.8-1.4-8.4-6.4-6.1-11.9
	c1.9-4.7,5.6-7.4,10.4-8.6C508.6,107.5,510.2,107.4,512.1,107.2z"/>
<path class="st0" d="M432.4,87.2c3,13.4,6,26.5,9,39.6c0.4,1.7,0.8,3.4,1.2,5.1c2.3,10.2-4,20.4-14.1,22.9
	c-8.4,2.1-15.4-4.3-14-12.9c1.5-9.1,7.1-14.7,16.2-17.2c-1.5-6.5-2.9-13-4.4-19.6c-2.4-10.5-4.8-21.1-7.2-31.6
	c-0.3-1.3-0.4-2.7-0.2-4c0.4-2.6,2.1-4.5,4.6-4.5c1.8,0,4.6,1,5.1,2.3c2.4,6.6,8.2,8.9,13.6,12c10.9,6.2,15.7,17.4,12.8,29.6
	c-0.2,0.8-0.3,2-0.8,2.4c-0.9,0.8-2.3,1.7-3.3,1.6c-0.9-0.1-1.8-1.5-2.4-2.4c-0.3-0.4-0.1-1.1,0-1.7
	C449.7,97.1,444.4,89.8,432.4,87.2z"/>
<path class="st0" d="M453.3,54.1c0.9-8,1.7-15.8,2.5-23.5c0.1-0.6,0-1.2,0.2-1.7c0.4-2,0.1-4.7,3.2-4.8c3-0.1,2.5,2.5,3.2,4.3
	c0.7,1.7,1.9,3.3,3.2,4.7c4.8,5.1,5.8,11.5,2.3,17.1c-0.5,0.8-1.8,1.2-2.8,1.8c-0.1-1-0.4-2.2-0.1-3.1c1.9-5.3,0.7-8.9-4.6-12.4
	c-0.6,5.2-1.1,10.1-1.7,15.1c-0.3,3-0.5,6-1,9c-0.8,4.8-5.4,8.4-10.3,8.1c-4.1-0.3-6.6-4.1-5.1-7.9c1.4-3.5,4.1-5.6,7.9-6.2
	C451.1,54.3,452.1,54.3,453.3,54.1z"/>
<path class="st0" d="M234,111.6c-2.2,0-3.8-1.8-3.8-4.3c0-2.5,1.8-4.4,4.1-4.4c2.3-0.1,4,1.7,3.9,4.1
	C238.3,109.5,236.4,111.6,234,111.6z"/>
<path class="st1" d="M305.2,144.7c0.6-1.4,1.3-2.8,1.6-4.2c0.2-1-0.4-2.1-0.7-3.1c-0.9,0.4-2.1,0.6-2.6,1.3c-1.7,2.2-3.3,4.6-5,7.2
	c-1-2.5-2.5-2.3-3.9-0.7c-2.1,2.3-4.1,4.8-6.6,6.9c1.4-2.4,2.8-4.8,4.1-7.2c0.7-1.2,1.5-2.4,1.8-3.7c0.4-1.4,0.3-2.9,0.4-4.4
	c-1.4,0.3-2.8,0.6-4.2,0.9c0.6-1.5,1.6-3.3,2-5.2c0.3-1.2-0.2-2.5-0.3-3.8c-1.3,0.3-3,0.3-3.9,1.1c-3.5,3.3-6.8,7-10.2,10.5
	c-1.1,1.1-2.1,2.3-3.7,3.1c1.3-2.6,2.7-5.1,3.8-7.7c1.3-3,2.4-6.1,3.4-9.3c0.2-0.8-0.4-1.9-0.7-2.8c-0.9,0.3-2.2,0.3-2.8,0.9
	c-2.8,3.1-5.6,6.3-8.2,9.5c-2.9,3.6-5.7,7.3-8.9,10.7c1.6-4.6,3.2-9.1,4.7-13.7c0.6-1.8,1-3.6,1.2-5.4c0.5-3.6-0.1-4.3-3-4.4
	c0.9-7.7,1.9-15.5,2.8-23.5c2.3-0.1,2.3-2.5,2.1-4.8c-0.3-3.4-0.9-6.8-0.9-10.5c1.4,2.7,2.7,5.3,4.1,8c0.5,1,0.8,2.1,1.4,2.9
	c0.6,0.8,1.5,1.2,2.3,1.8c0.6-0.9,1.7-1.7,1.8-2.6c0.1-2.2-0.1-4.5-0.5-6.7c-0.4-2.5-1.2-4.9-1.9-7.3c0.3-0.2,0.5-0.3,0.8-0.5
	c3,4.5,6.1,9,9.1,13.5c0.9,1.3,1.3,2.9,2.2,4.1c0.5,0.7,1.5,1,2.2,1.5c0.3-0.8,0.9-1.5,0.9-2.3c-0.2-2-0.4-4.1-1-6
	c-2-6.4-4.2-12.7-6.1-19.3c1.7,2.7,3.4,5.4,5,8.1c0.8,1.3,1.4,2.8,2.3,4c0.6,0.8,1.7,1.2,2.6,1.7c0.4-1,1.2-2,1.1-3
	c-0.1-1.9-0.6-3.8-0.6-5.8c1.1,2.4,2.2,4.8,3.4,7.2c0.8,1.7,1.4,3.4,2.5,4.9c0.5,0.8,1.8,1.5,2.7,1.4c0.6,0,1.4-1.6,1.4-2.4
	c0-2.1-0.2-4.4-0.9-6.3c-2.9-7.9-5.9-15.6-9-23.4c-0.3-0.9-0.7-1.7-1.3-3.2C315.5,76.5,323.6,114.4,305.2,144.7z"/>
</svg>
