<?xml version="1.0" encoding="utf-8"?>
<!-- Generator: Adobe Illustrator 28.0.0, SVG Export Plug-In . SVG Version: 6.00 Build 0)  -->
<svg version="1.1" id="Capa_1" xmlns="http://www.w3.org/2000/svg" xmlns:xlink="http://www.w3.org/1999/xlink" x="0px" y="0px"
	 viewBox="0 0 525.4 377.7" style="enable-background:new 0 0 525.4 377.7;" xml:space="preserve">
<style type="text/css">
	.st0{fill:#0E53B4;}
</style>
<path class="st0" d="M243.1,172.9c0,7.1-0.2,13.9,0,20.6c0.3,9.1,2.1,17.9,8,25.3c16,20.4,25.4,43.9,33.2,68.2c0.6,2,1.4,4,2,6
	c2.1,7.1-0.6,13.8-7.6,16.2c-19.9,7-39.8,13.8-59.9,20c-16.4,5.1-32.6,1.7-48.4-3.7c-13.7-4.7-27.4-9.3-41.1-14
	c-1.1-0.4-2.1-0.7-3.2-1.2c-10.4-4.5-12.6-9.4-9.2-20.1c6.3-19.9,13.4-39.4,24.3-57.3c2.1-3.4,4.1-6.9,6.8-9.8
	c8-8.9,10.7-19.6,11.1-31c0.2-6.3,0-12.7,0-17.9c7.9-1,15.4-1.8,22.8-2.9c2.2-0.3,4.4-1.4,3.6-4.1c-0.8-2.8-3.2-2.3-5.3-1.6
	c-26.8,8.8-43.4-10.6-46.6-31.5c-1.4-9-0.4-17.7,3.1-26c2.2-5.2,6.3-7.6,11.9-6.8c10.9,1.6,20.4,6.5,29.4,12.4
	c5.4,3.6,10.3,7.8,15.2,12.1c5.5,4.8,9.2,5.1,14.7,0.3c12.1-10.4,24.7-19.9,40.6-23.9c2.2-0.5,4.4-1.1,6.6-1.1
	c4.5,0.1,8.1,1.8,10,6.4c7.5,17.4,3.7,39-8.9,51.1c-8.6,8.3-18.9,10.7-30.4,8c-1.5-0.3-2.9-0.9-4.3-1.2c-2.1-0.6-4.2-0.6-5,1.8
	c-0.8,2.5,1.1,3.6,3.2,4.1c6.9,1.8,13.9,2.9,21.1,1.8C241.5,173,242.1,173,243.1,172.9z"/>
<path class="st0" d="M410,101.8c0,2.3,0,3.6,0,4.8c0,34.7,0,69.4,0,104.1c0,10-3.5,13.5-13.5,13.5c-21.6,0-43.2,0-64.8,0
	c-1.4,0-2.7,0-4.3,0c-0.1-1.4-0.2-2.5-0.3-3.5c0-6.2,0.1-12.5-0.1-18.7c-0.1-4.8-0.5-9.3,5.3-11.6c1.9-0.7,3.2-3.1,4.6-4.8
	c23.4-26.9,46.8-53.9,70.3-80.8C407.8,104,408.5,103.3,410,101.8z"/>
<path class="st0" d="M320.9,223.7c-1.5,0.1-2.6,0.2-3.7,0.2c-17.1,0-34.2,0.1-51.3-0.1c-1.8,0-4.1-1.1-5.3-2.4
	c-7.8-8.7-10.6-19.4-11.2-30.7c-0.3-5.8,0.2-11.7,0.5-17.6c0.1-1,0.8-2.5,1.6-2.9c11.3-5.6,17.6-15.1,21.2-26.8
	c0.1-0.3,0.4-0.6,0.8-1.1c6.9,8,13.8,15.8,20.7,23.7c6.2,7.2,12.4,14.4,18.8,21.4c1.8,2,4.2,3.4,6.2,5.2c0.8,0.7,1.7,1.9,1.7,2.8
	C321,204.8,320.9,214,320.9,223.7z"/>
<path class="st0" d="M327.1,186.7c0-18.1,0-35.2,0-52.2c0-0.9,0.5-1.9,1-2.7c7.9-9.8,15.8-19.5,24.1-29.6c3,1.4,6.7,3.5,10.6,5
	c12.6,5,26.2-4.1,26.4-17.7c0.1-7.5-0.2-15,0.1-22.5c0.3-8.5-2-15.5-9.6-20.3c0.2-0.3,0.4-0.7,0.5-1c8.4,3.2,16.9,6.2,25.3,9.7
	c3.3,1.4,4.3,4.7,4.3,8.2c0,8.7,0.1,17.5-0.1,26.2c0,1.3-0.7,2.9-1.6,4c-26,30.1-52.1,60.2-78.3,90.3
	C329.3,184.9,328.5,185.4,327.1,186.7z"/>
<path class="st0" d="M320.4,186.7c-3.7-4.2-6.9-7.8-10.1-11.5c-11.3-13-22.6-26-33.9-39c-0.8-0.9-1.7-2-1.7-3.1
	c-0.4-8.1-0.5-16.3-0.7-24.6c7.5,1.4,14.4-2.6,21.7-6.4c2.2,2.9,4.2,5.9,6.4,8.6c5.5,6.7,11.2,13.4,16.7,20.1c1,1.2,1.9,2.8,2,4.2
	c0.1,16.6,0.1,33.2,0.1,49.8C320.9,185.1,320.7,185.5,320.4,186.7z"/>
<path class="st0" d="M344.4,91.3c6.4-10.2,6.1-19.9,0-30c7.3-3.4,14.2-7.2,21.5-9.9c9.7-3.7,17.1,4.5,17.2,12.1
	c0.1,8.7,0.3,17.5,0,26.2c-0.3,9.3-9.7,15.3-18.2,11.5C358,98.2,351.4,94.7,344.4,91.3z"/>
<path class="st0" d="M303.2,61.5c-5.7,12.3-5.7,17.5,0.1,29.9c-7,3.4-13.9,7.2-21.1,10.1c-8,3.3-16.8-2.5-17.2-11.2
	c-0.4-9.2-0.3-18.5,0-27.7c0.3-8.2,9.3-14.6,16.9-11.6C289.2,53.9,296.1,58,303.2,61.5z"/>
<path class="st0" d="M282.4,44c0.5-4.8,2.4-6.8,7-6.8c23-0.1,46,0,68.9,0c4.7,0,6.5,1.9,7.2,6.8c-8,4-15.9,8-24,11.9
	c-0.8,0.4-2.4,0.2-3.2-0.4c-9.6-5.9-19-5.8-28.6-0.1c-0.9,0.5-2.4,0.8-3.2,0.4C298.4,52.1,290.4,48,282.4,44z"/>
<path class="st0" d="M305.3,76c-0.1-10.4,8-18.6,18.4-18.6c10.8,0,18.7,7.9,18.9,19c0.2,10.4-8.2,18.8-18.7,18.7
	C313,95.2,305.4,87.4,305.3,76z"/>
<path class="st0" d="M267,47.3c-0.8,0.7-1.8,1.4-2.3,2.3c-2,3.5-5.3,7-5.6,10.6c-0.7,11.4-0.3,22.9-0.3,34.2
	c-4.8,0.9-9.9,2.6-14.9,2.4c-2.1-0.1-5.5-4-5.7-6.4c-0.7-9.2-0.6-18.4,0-27.6c0.1-2.6,2.1-6.2,4.3-7.2c7.8-3.6,16-6.3,24.1-9.4
	C266.7,46.6,266.9,46.9,267,47.3z"/>
<path class="st0" d="M346.1,99.3c-7.2,9.4-14.2,18.6-22.1,28.7c-8-9.8-15.3-18.9-22.6-27.9c4.3-4.2,5.7-4.4,10-2
	c8.2,4.4,16.5,4.4,24.7,0.1C340.7,96,340.7,95.9,346.1,99.3z"/>
</svg>
