<?xml version="1.0" encoding="utf-8"?>
<!-- Generator: Adobe Illustrator 28.0.0, SVG Export Plug-In . SVG Version: 6.00 Build 0)  -->
<svg version="1.1" id="Capa_1" xmlns="http://www.w3.org/2000/svg" xmlns:xlink="http://www.w3.org/1999/xlink" x="0px" y="0px"
	 viewBox="0 0 35.8 41.6" style="enable-background:new 0 0 35.8 41.6;" xml:space="preserve">
<style type="text/css">
	.st0{fill:#0E53B4;}
	.st1{fill:#FFFFFF;}
</style>
<path class="st0" d="M30.2,13.6c1.3,0,2.6,0,3.9,0c0.8,0,1.1,0.3,1.1,1.2c0,7.5,0,15.1,0,22.6c0,0.9-0.3,1.1-1.1,1.1
	c-10.5,0-21.1,0-31.6,0c-0.9,0-1.1-0.2-1.1-1.2c0-7.5,0-15.1,0-22.6c0-0.9,0.3-1.2,1.1-1.2c1.3,0,2.5,0,3.8,0c0-3.9,0-7.8,0-11.7
	c8,0,15.9,0,23.8,0C30.2,5.8,30.2,9.7,30.2,13.6z M7.5,3.1c0,0.2,0,0.4,0,0.5c0,4.7,0,9.4,0,14.1c0,0.4,0.1,0.6,0.4,0.9
	c2.8,2.4,5.6,4.8,8.4,7.2c0.7,0.6,0.7,0.6,1.4,0.1c1-0.7,1-0.7,2,0c0.2,0.2,0.4,0.2,0.6,0c2.8-2.4,5.5-4.8,8.3-7.1
	c0.4-0.3,0.5-0.6,0.5-1.2c0-4.6,0-9.3,0-13.9c0-0.2,0-0.4,0-0.6C21.8,3.1,14.7,3.1,7.5,3.1z M4.1,37.4c9.6,0,19.1,0,28.7,0
	c-0.1-0.1-0.2-0.2-0.3-0.3c-4.5-3.4-9-6.8-13.6-10.2c-0.3-0.2-0.4-0.1-0.6,0c-3.5,2.6-7,5.1-10.5,7.7C6.6,35.5,5.4,36.4,4.1,37.4z
	 M2.6,15.6c0,7.2,0,14.3,0,21.4c4.5-3.3,8.9-6.6,13.4-9.9C11.5,23.3,7.1,19.5,2.6,15.6z M20.9,26.9c4.4,3.3,8.7,6.6,13.1,9.9
	c0-7.1,0-14.1,0-21.2C29.6,19.4,25.3,23.1,20.9,26.9z M30.2,17.3c1-0.8,1.8-1.6,2.8-2.4c-1,0-1.9,0-2.8,0
	C30.2,15.7,30.2,16.4,30.2,17.3z M6.3,17.3c0-0.9,0-1.6,0-2.4c-0.9,0-1.8,0-2.8,0C4.5,15.7,5.4,16.5,6.3,17.3z"/>
<path class="st1" d="M6.3,17.3c-0.9-0.8-1.8-1.6-2.8-2.4"/>
<path class="st1" d="M6.3,14.9"/>
<path class="st0" d="M18.2,7.5c0.4-1.5,1-2.7,2.6-2.7c1,0,1.8,0.5,2.3,1.4c0.6,1.2,0.3,2.2-0.7,3.2c1.1,0,2.1,0,3.2,0
	c0,1.4,0,2.7,0,4.1c-0.2,0-0.5,0-0.8,0c0,2.2,0,4.4,0,6.7c-0.2,0-0.4,0-0.5,0c-4,0-7.9,0-11.9,0c-0.5,0-0.6-0.1-0.6-0.6
	c0-1.9,0-3.8,0-5.6c0-0.1,0-0.3,0-0.4c-0.3,0-0.5,0-0.8-0.1c0-0.3,0-0.5,0-0.7c0-0.9,0-1.9,0-2.8c0-0.3,0.1-0.5,0.4-0.5
	c0.8,0,1.6,0,2.4,0c0.1,0,0.3,0,0.5,0c-0.7-0.8-0.9-1.6-0.7-2.5c0.2-0.7,0.6-1.2,1.2-1.5C16.1,4.8,17.3,5.4,18.2,7.5z M19.3,19
	c0-2.8,0-5.5,0-8.3c-0.7,0-1.5,0-2.2,0c0,2.8,0,5.5,0,8.3C17.9,19,18.6,19,19.3,19z M12.9,13.6c0,1.8,0,3.6,0,5.4c1,0,2,0,3,0
	c0-1.8,0-3.6,0-5.4C14.9,13.6,14,13.6,12.9,13.6z M23.6,13.6c-1,0-2,0-3,0c0,1.8,0,3.6,0,5.4c1,0,2,0,3,0
	C23.6,17.2,23.6,15.4,23.6,13.6z M19,9.2c0.1,0.1,0.1,0.1,0.2,0.2c0.8-0.2,1.6-0.4,2.3-0.7c0.5-0.2,0.7-0.8,0.6-1.4
	c-0.1-0.5-0.6-1-1.1-1.1c-0.5-0.1-1.1,0.2-1.3,0.7C19.4,7.5,19.2,8.4,19,9.2z M16,10.7c-1.3,0-2.6,0-3.9,0c0,0.5,0,0.9,0,1.4
	c0,0.1,0.2,0.2,0.3,0.2c1.1,0,2.2,0,3.3,0c0.1,0,0.3-0.2,0.3-0.2C16,11.7,16,11.2,16,10.7z M20.6,12.3c1.3,0,2.6,0,3.9,0
	c0-0.6,0-1.1,0-1.6c-1.3,0-2.6,0-3.9,0C20.6,11.3,20.6,11.8,20.6,12.3z M17.2,9.3c0,0,0.1-0.1,0.1-0.1c-0.2-0.6-0.3-1.3-0.5-1.9
	c-0.2-0.6-0.7-0.8-1.2-0.7c-0.5,0.1-0.9,0.5-1,1c-0.1,0.6,0.2,1.1,0.7,1.3C16,9,16.6,9.1,17.2,9.3z"/>
<path class="st1" d="M19.3,19c-0.7,0-1.4,0-2.2,0c0-2.8,0-5.5,0-8.3c0.7,0,1.4,0,2.2,0C19.3,13.5,19.3,16.3,19.3,19z"/>
<path class="st1" d="M12.9,13.6c1,0,2,0,3,0c0,1.8,0,3.6,0,5.4c-1,0-2,0-3,0C12.9,17.2,12.9,15.4,12.9,13.6z"/>
<path class="st1" d="M23.6,13.6c0,1.8,0,3.6,0,5.4c-1,0-2,0-3,0c0-1.8,0-3.6,0-5.4C21.6,13.6,22.5,13.6,23.6,13.6z"/>
<path class="st1" d="M19,9.2c0.2-0.8,0.4-1.6,0.7-2.4C19.9,6.2,20.5,6,21,6.1c0.5,0.1,1,0.6,1.1,1.1c0.1,0.6-0.1,1.2-0.6,1.4
	c-0.8,0.3-1.5,0.5-2.3,0.7C19.1,9.3,19,9.2,19,9.2z"/>
<path class="st1" d="M16,10.7c0,0.5,0,0.9,0,1.4c0,0.1-0.2,0.2-0.3,0.2c-1.1,0-2.2,0-3.3,0c-0.1,0-0.3-0.1-0.3-0.2
	c0-0.5,0-0.9,0-1.4C13.4,10.7,14.7,10.7,16,10.7z"/>
<path class="st1" d="M20.6,12.3c0-0.5,0-1,0-1.6c1.3,0,2.5,0,3.9,0c0,0.5,0,1,0,1.6C23.1,12.3,21.9,12.3,20.6,12.3z"/>
<path class="st1" d="M17.2,9.3C16.6,9.1,16,9,15.4,8.7c-0.6-0.2-0.8-0.7-0.7-1.3c0.1-0.5,0.5-0.9,1-1c0.6-0.1,1,0.2,1.2,0.7
	c0.2,0.6,0.3,1.3,0.5,1.9C17.3,9.2,17.3,9.2,17.2,9.3z"/>
</svg>
